<?xml version="1.0" encoding="utf-8"?>
<!-- Generator: Adobe Illustrator 24.0.0, SVG Export Plug-In . SVG Version: 6.00 Build 0)  -->
<svg version="1.1" id="Layer_1" xmlns="http://www.w3.org/2000/svg" xmlns:xlink="http://www.w3.org/1999/xlink" x="0px" y="0px"
	 viewBox="0 0 199.5 136.4" style="enable-background:new 0 0 199.5 136.4;" xml:space="preserve">
<style type="text/css">
	.st0{fill:#E9EEFB;}
	.st1{fill:#3A84FF;}
	.st2{fill:#3157DC;}
</style>
<title>takeaways-3</title>
<circle class="st0" cx="60.2" cy="76.2" r="60.2"/>
<circle class="st0" cx="147.1" cy="77.5" r="52.4"/>
<path class="st1" d="M146.8,82.3c-7.3,0-13.6,5-15.3,12.2c-7.1-2.1-14.6,1.9-16.7,9.1c-2.1,7.1,1.9,14.6,9.1,16.7
	c1.2,0.4,2.5,0.6,3.8,0.6h35.7l0,0c5.8-0.1,10.5-4.9,10.4-10.7c-0.1-5.7-4.7-10.3-10.5-10.4c-0.3,0-0.6,0-0.9,0
	c0.1-0.6,0.1-1.2,0.1-1.8C162.5,89.3,155.5,82.3,146.8,82.3z"/>
<path class="st2" d="M50.5,120.8L50.5,120.8h65.4c-7.4-6.5-8.2-17.8-1.7-25.2c3.4-3.9,8.3-6.1,13.5-6.1c0.3,0,0.6,0,0.9,0
	c4.7-10.1,16.7-14.4,26.8-9.7c6.3,3,10.7,9,11.5,15.9c0.7,0.2,1.3,0.4,1.9,0.6c4.5-17.5-6-35.3-23.4-39.8
	c-5.8-1.5-11.8-1.4-17.5,0.3c-4.7-20.5-25.2-33.3-45.7-28.6c-18.9,4.3-31.5,22.2-29.3,41.4c-0.7-0.1-1.4-0.1-2.2-0.1
	c-14.2,0.1-25.6,11.6-25.5,25.7C25.2,109.3,36.5,120.6,50.5,120.8z"/>
<path class="st1" d="M115.1,16.1l-0.4-0.1c-0.8,0-1.5,0.7-1.5,1.5v5.6c0,0.6,0.4,1.2,1,1.4c8.9,3.2,16,10,19.6,18.8
	c0.2,0.6,0.8,0.9,1.4,0.9h5.7c0.8,0,1.5-0.7,1.5-1.5c0-0.2,0-0.3-0.1-0.5C137.9,29.8,127.8,20.1,115.1,16.1z"/>
<path class="st2" d="M151.4,42.5h5.5c0.8,0,1.5-0.7,1.5-1.5c0-0.1,0-0.2,0-0.4C153.2,20.3,137.2,4.7,116.9,0l-0.3,0
	c-0.8,0-1.5,0.7-1.5,1.5V7c0,0.7,0.5,1.3,1.1,1.5c16.3,4.1,29.2,16.6,33.8,32.8C150.1,42,150.7,42.4,151.4,42.5z"/>
</svg>
