<?xml version="1.0" encoding="utf-8"?>
<!-- Generator: Adobe Illustrator 24.0.0, SVG Export Plug-In . SVG Version: 6.00 Build 0)  -->
<svg version="1.1" id="Layer_1" xmlns="http://www.w3.org/2000/svg" xmlns:xlink="http://www.w3.org/1999/xlink" x="0px" y="0px"
	 viewBox="0 0 199.5 139.4" style="enable-background:new 0 0 199.5 139.4;" xml:space="preserve">
<style type="text/css">
	.st0{fill:#E9EEFB;}
	.st1{fill:#3157DC;}
	.st2{fill:#FFFFFF;}
	.st3{fill:#3A84FF;}
</style>
<title>takeaways-1</title>
<circle class="st0" cx="60.2" cy="73.6" r="60.2"/>
<circle class="st0" cx="147.1" cy="75" r="52.4"/>
<path class="st1" d="M63.5,139.4h71.9c4.6,0,8.3-3.7,8.3-8.3c0,0,0,0,0,0V8.3c0-4.6-3.7-8.3-8.3-8.3H63.5c-4.6,0-8.3,3.7-8.3,8.3
	V131C55.2,135.6,58.9,139.4,63.5,139.4z M99.5,131.3c-2.8,0-5.1-2.3-5.1-5.1c0-2.8,2.3-5.1,5.1-5.1s5.1,2.3,5.1,5.1l0,0
	C104.6,129,102.3,131.3,99.5,131.3z M68.3,11.5h62.4v103.7H68.3V11.5z"/>
<path class="st2" d="M130.7,11.5H68.3v103.7h62.4V11.5z M74.1,18h50.6v37.3H74.1V18z M124.8,58.6v4.6h-12.1v-4.6H124.8L124.8,58.6z
	 M74.1,58.6h12.1v4.6H74.1V58.6z M97.5,89.1H74.1V67.2h23.3V89.1L97.5,89.1z M99.1,63.2H87v-4.6h12.1V63.2z M99.8,58.6h12.1v4.6
	H99.8C99.8,63.2,99.8,58.6,99.8,58.6z M100.6,84h12.6v3.2h-12.6V84z M124.8,100.4h-24.2v-3.2h24.2V100.4z M124.8,95h-24.2v-3.2h24.2
	V95z M124.8,81.8h-24.2v-3.2h24.2V81.8z M124.8,76.3h-24.2v-3.2h24.2V76.3z M124.8,70.9h-24.2v-3.2h24.2V70.9L124.8,70.9z"/>
<circle class="st0" cx="99.5" cy="126.2" r="5.1"/>
<rect x="74.1" y="18" class="st3" width="50.6" height="37.3"/>
<rect x="74.1" y="58.6" class="st0" width="12.1" height="4.6"/>
<rect x="74.1" y="67.2" class="st0" width="23.3" height="21.9"/>
<rect x="87" y="58.6" class="st0" width="12.1" height="4.6"/>
<rect x="99.8" y="58.6" class="st0" width="12.1" height="4.6"/>
<rect x="100.6" y="67.8" class="st3" width="24.2" height="3.2"/>
<rect x="100.6" y="73.2" class="st3" width="24.2" height="3.2"/>
<rect x="100.6" y="78.6" class="st3" width="24.2" height="3.2"/>
<rect x="100.6" y="84" class="st3" width="12.6" height="3.2"/>
<rect x="100.6" y="91.8" class="st3" width="24.2" height="3.2"/>
<rect x="100.6" y="97.3" class="st3" width="24.2" height="3.2"/>
<rect x="112.7" y="58.6" class="st0" width="12.1" height="4.6"/>
</svg>
