<?xml version="1.0" encoding="utf-8"?>
<!-- Generator: Adobe Illustrator 24.0.0, SVG Export Plug-In . SVG Version: 6.00 Build 0)  -->
<svg version="1.1" id="Layer_1" xmlns="http://www.w3.org/2000/svg" xmlns:xlink="http://www.w3.org/1999/xlink" x="0px" y="0px"
	 viewBox="0 0 199.5 131.5" style="enable-background:new 0 0 199.5 131.5;" xml:space="preserve">
<style type="text/css">
	.st0{fill:#E9EEFB;}
	.st1{fill:#3A84FF;}
	.st2{fill:none;}
	.st3{fill:#3157DC;}
</style>
<title>takeaways-4</title>
<circle class="st0" cx="60.2" cy="71.4" r="60.2"/>
<circle class="st0" cx="147.1" cy="72.7" r="52.4"/>
<path class="st1" d="M58.5,129.7h82c5.3,0,9.9-3.6,11.2-8.7H47.3C48.6,126.1,53.2,129.7,58.5,129.7z"/>
<path class="st1" d="M46.9,118.1c0,1,0.1,1.9,0.4,2.9h104.3c0.2-0.9,0.4-1.9,0.4-2.9v-1.8H46.9V118.1z"/>
<path class="st2" d="M86.4,20.7c-5.1,3.2-8.1,8.8-8.1,14.8v16.3h42.4V35.4C119,20.7,102.3,10.6,86.4,20.7z"/>
<path class="st0" d="M108.7,83.7c0-7-7.8-12.2-15.2-7.3c-0.5,0.4-1,0.8-1.4,1.4c-3.6,5.6-1.6,11.3,2.5,13.8v9.1h9.7v-9.1
	C107,89.8,108.7,86.9,108.7,83.7z"/>
<path class="st2" d="M93.5,76.3c-0.5,0.4-1,0.8-1.4,1.4c-3.6,5.6-1.6,11.3,2.5,13.8v9.1h9.7v-9.1c2.7-1.7,4.4-4.6,4.4-7.9
	C108.7,76.6,100.9,71.4,93.5,76.3z"/>
<path class="st3" d="M137.1,51.9h-83c-4,0-7.2,3.2-7.2,7.2c0,0,0,0,0,0v57.2H152V59.1c0-4-3.2-7.2-7.2-7.2L137.1,51.9L137.1,51.9z
	 M104.3,91.5v9.1h-9.7v-9.1c-4.1-2.6-6.2-8.2-2.5-13.8c0.4-0.6,0.8-1,1.4-1.4c7.4-4.9,15.2,0.3,15.2,7.3
	C108.7,86.9,107,89.8,104.3,91.5L104.3,91.5z"/>
<path class="st1" d="M78.2,35.5c0-6,3-11.6,8.1-14.8c15.9-10.1,32.6,0,34.3,14.7v16.5h16.8v-14c0-27.3-29-47.9-57.7-32.8
	c-11.2,6-18.1,17.7-18,30.4v16.4h16.6V35.5z"/>
</svg>
