<?xml version="1.0" encoding="utf-8"?>
<!-- Generator: Adobe Illustrator 24.0.0, SVG Export Plug-In . SVG Version: 6.00 Build 0)  -->
<svg version="1.1" id="Layer_1" xmlns="http://www.w3.org/2000/svg" xmlns:xlink="http://www.w3.org/1999/xlink" x="0px" y="0px"
	 viewBox="0 0 199.5 162.1" style="enable-background:new 0 0 199.5 162.1;" xml:space="preserve">
<style type="text/css">
	.st0{fill:#E9EEFB;}
	.st1{fill:#3A84FF;}
	.st2{fill:#3157DC;}
	.st3{fill:#FFFFFF;}
</style>
<title>takeaways-2</title>
<circle class="st0" cx="60.2" cy="84.5" r="60.2"/>
<circle class="st0" cx="147.1" cy="85.8" r="52.4"/>
<path class="st1" d="M102.4,2c-0.6-1.6-2.4-2.5-4.1-1.8c-0.9,0.3-1.5,1-1.8,1.8L84,22.8h30.7L102.4,2z"/>
<path class="st2" d="M51.7,110.2c-0.2,0.3-0.4,0.8-0.4,1.2l-0.1,47.2c0,0.9,0.6,1.8,1.6,2l0.5,0.1c0.8,0,1.4-0.4,1.8-1.1l19.8-35
	c0.2,0.6,0.5,1.2,0.7,1.8c4.9,11.6,11.4,19,18.6,21.3l-4.8-21.9c-0.1-0.3-0.1-0.6,0-1l8-31.7c0.2-0.9,1.1-1.6,2-1.6h0
	c1,0,1.8,0.7,2,1.6l7.6,31.3c0.1,0.3,0.1,0.6,0,0.9l-4.6,22.3c7.2-2.4,13.7-9.7,18.5-21.3c0.3-0.6,0.5-1.3,0.8-2l19.9,35.1
	c0.4,0.7,1.1,1.1,1.8,1.1l0.5-0.1c0.9-0.2,1.6-1.1,1.6-2l-0.1-47.2c0-0.4-0.1-0.8-0.4-1.2l-14.3-21.1c-0.4-0.5-1-0.9-1.6-0.9
	c0.2-3.5,0.4-7,0.4-10.6v-4.1c0-6.2,0-12.1-0.1-17.7c0.1-1,0.1-1.9,0.1-2.7c0-8.8-3.6-17.2-10-23.3l-0.2-0.2l-5.6-5.6H82.8l-6.3,6.3
	l-0.2,0.3c-3.6,3.7-6.3,8.2-7.8,13.2c-0.2,0.6-0.3,1.2-0.5,1.8c-0.6,2.5-0.9,5-0.9,7.6c0,0.3,0,0.7,0,1.1c-0.1,1.1,0,2.2,0,3.2
	c-0.1,4.3-0.1,8.5,0,12.9c0,2.3,0.1,4.7,0.1,7.2c0,3.6,0.1,7.1,0.4,10.6c-0.6,0.1-1.1,0.4-1.5,0.9L51.7,110.2z M99.4,43.8
	c11.8,0,21.5,9.6,21.5,21.5c0,11.8-9.6,21.5-21.5,21.5c-11.8,0-21.4-9.6-21.5-21.5C77.9,53.4,87.5,43.8,99.4,43.8
	C99.4,43.8,99.4,43.8,99.4,43.8z"/>
<polygon class="st1" points="107.2,125 99.6,93.8 91.5,125.5 96.6,148.4 99.6,162.1 102.4,148.4 "/>
<polygon class="st3" points="114.8,22.8 84,22.8 82.8,24.1 116,24.1 "/>
<path class="st1" d="M99.4,82.6c9.5,0,17.3-7.7,17.3-17.3c0-9.5-7.7-17.3-17.3-17.3c-9.5,0-17.3,7.7-17.3,17.3
	C82.1,74.8,89.8,82.5,99.4,82.6z M108.5,60c0.5,0.4,0.6,1.1,0.2,1.6L96.8,76.5c-0.4,0.5-1.1,0.6-1.6,0.2c-0.5-0.4-0.6-1.1-0.2-1.6
	l11.8-14.9C107.2,59.7,108,59.6,108.5,60C108.5,60,108.5,60,108.5,60z M90,70.1l11.8-14.9c0.4-0.5,1.1-0.6,1.6-0.2
	c0.5,0.4,0.6,1.1,0.2,1.6l0,0L91.8,71.6c-0.2,0.3-0.5,0.4-0.9,0.4c-0.3,0-0.5-0.1-0.7-0.2C89.7,71.3,89.7,70.6,90,70.1z"/>
<path class="st0" d="M99.4,86.7c11.8,0,21.5-9.6,21.5-21.5c0-11.8-9.6-21.5-21.5-21.5c-11.8,0-21.5,9.6-21.5,21.5
	C77.9,77.1,87.5,86.7,99.4,86.7C99.4,86.7,99.4,86.7,99.4,86.7z M99.4,48c9.5,0,17.3,7.7,17.3,17.3c0,9.5-7.7,17.3-17.3,17.3
	c-9.5,0-17.3-7.7-17.3-17.3C82.1,55.7,89.8,48,99.4,48z"/>
<path class="st3" d="M90.9,72c0.4,0,0.7-0.2,0.9-0.4l11.8-14.9c0.4-0.5,0.3-1.2-0.2-1.6c-0.5-0.4-1.2-0.3-1.6,0.2l0,0L90,70.1
	c-0.4,0.5-0.3,1.2,0.2,1.6C90.4,71.9,90.7,72,90.9,72z"/>
<path class="st3" d="M95.2,76.7c0.5,0.4,1.2,0.3,1.6-0.2c0,0,0,0,0,0l11.8-14.9c0.4-0.5,0.3-1.2-0.2-1.6c-0.5-0.4-1.2-0.3-1.6,0.2
	l0,0L95,75.1C94.6,75.6,94.7,76.3,95.2,76.7z"/>
</svg>
